<?xml version="1.0" encoding="utf-8"?>
<!-- Generator: Adobe Illustrator 20.0.0, SVG Export Plug-In . SVG Version: 6.00 Build 0)  -->
<!DOCTYPE svg PUBLIC "-//W3C//DTD SVG 1.1//EN" "http://www.w3.org/Graphics/SVG/1.1/DTD/svg11.dtd">
<svg version="1.1" id="chart" xmlns="http://www.w3.org/2000/svg" xmlns:xlink="http://www.w3.org/1999/xlink" x="0px" y="0px"
	 viewBox="0 0 500 500" style="enable-background:new 0 0 500 500;" xml:space="preserve">
<path style="fill:#2D8E88;stroke:#FFFFFF;stroke-width:10;stroke-linecap:round;stroke-miterlimit:10;" d="M286.4,104.5
	c55,13.7,96.2,56.9,109.2,109.6c1.8,7.1,8.6,11.8,15.9,10.7l71.1-11.1c8-1.3,13.3-9,11.6-16.9C473.5,101.6,399.4,27.1,304.4,6
	c-7.9-1.8-15.7,3.5-17,11.5l-11.5,71C274.8,95.8,279.4,102.7,286.4,104.5z"/>
<path style="fill:#2FB393;stroke:#FFFFFF;stroke-width:10;stroke-linecap:round;stroke-miterlimit:10;" d="M398.1,273.9
	c-1.8,11.4-4.9,22.3-9.1,32.6c-2.8,6.8,0,14.6,6.6,18l64,32.8c7.2,3.7,16.1,0.6,19.3-6.8c17.1-39,24-81.7,19.9-124.1
	c-0.8-8.1-8.2-13.8-16.2-12.5l-71.1,11.1c-7.3,1.1-12.4,7.7-11.9,15C400.4,251,399.9,262.4,398.1,273.9z"/>
<path style="fill:#2D8E88;stroke:#FFFFFF;stroke-width:10;stroke-linecap:round;stroke-miterlimit:10;" d="M324,395.8l32.6,64.2
	c3.7,7.3,12.7,9.9,19.7,5.8c36.7-21.5,67.3-52,88.9-88.5c4.1-7,1.5-16-5.7-19.8l-64-32.8c-6.5-3.4-14.5-1.1-18.4,5.1
	c-12.2,19.4-28.7,35.7-47.9,47.6C322.9,381.2,320.6,389.2,324,395.8z"/>
<path style="fill:#2AA597;stroke:#FFFFFF;stroke-width:10;stroke-linecap:round;stroke-miterlimit:10;" d="M275.3,411.5l11.1,71.1
	c1.3,8,9,13.3,17,11.6c15.8-3.4,31.1-8.4,45.9-14.8c7.5-3.2,10.7-12.1,7-19.3l-32.5-64.2c-3.3-6.6-11.1-9.4-18-6.7
	c-6.4,2.6-13.1,4.7-19.9,6.4C278.8,397.4,274.1,404.3,275.3,411.5z"/>
<path style="fill:#306F7D;stroke:#FFFFFF;stroke-width:10;stroke-linecap:round;stroke-miterlimit:10;" d="M224.1,411.4l-11.4,71.1
	c-1.3,8,4.5,15.5,12.6,16.3c16,1.6,32.2,1.6,48.3,0.1c8.1-0.8,13.9-8.2,12.6-16.2l-11.1-71.1c-1.1-7.3-7.7-12.4-15-11.9
	c-6.9,0.5-14,0.4-21.1-0.1C231.8,399,225.3,404.2,224.1,411.4z"/>
<ellipse transform="matrix(0.1591 -0.9873 0.9873 0.1591 -36.5943 456.9968)" style="fill:#DDDDDD;" cx="250" cy="250" rx="60" ry="60"/>
<path style="fill:#224958;stroke:#FFFFFF;stroke-width:10;stroke-linecap:round;stroke-miterlimit:10;" d="M101.9,226.1
	c1.8-11.4,4.9-22.3,9.1-32.6c2.8-6.8,0-14.6-6.6-18l-64-32.8c-7.2-3.7-16.1-0.6-19.3,6.8c-8.5,19.4-14.5,39.7-17.9,60.7
	C-18,341.6,67.3,465.5,195.5,494c7.9,1.8,15.7-3.5,17-11.5l11.5-71c1.2-7.2-3.3-14.1-10.4-15.9C138.7,376.8,89.4,303.6,101.9,226.1z
	"/>
<path style="fill:#296F69;stroke:#FFFFFF;stroke-width:10;stroke-linecap:round;stroke-miterlimit:10;" d="M40.5,142.5l64,32.8
	c6.5,3.4,14.5,1.1,18.4-5.1c28.9-46,81.5-74,138-69.8c7.3,0.5,13.7-4.6,14.9-11.8l11.4-71.1c1.3-8-4.4-15.5-12.5-16.3
	C178-8.5,84.2,39.1,34.7,122.8C30.6,129.8,33.3,138.8,40.5,142.5z"/>
</svg>
