<?xml version="1.0" encoding="utf-8"?>
<!-- Generator: Adobe Illustrator 20.0.0, SVG Export Plug-In . SVG Version: 6.00 Build 0)  -->
<!DOCTYPE svg PUBLIC "-//W3C//DTD SVG 1.1//EN" "http://www.w3.org/Graphics/SVG/1.1/DTD/svg11.dtd">
<svg version="1.1" id="Calque_1" xmlns="http://www.w3.org/2000/svg" xmlns:xlink="http://www.w3.org/1999/xlink" x="0px" y="0px"
	 viewBox="0 0 109.5 98.2" style="enable-background:new 0 0 109.5 98.2;" xml:space="preserve">
<path style="fill-rule:evenodd;clip-rule:evenodd;fill:#3CB8B7;" d="M0.6,51.2c1.5-4.8,4.4-8.6,8.8-11.1c1.6-0.9,3.9-0.5,5.2,0.9
	c1.4,1.6,0.6,3-0.3,4.4c-0.3,0.5-0.8,1-1.3,1.4c-5.2,5.3-4.8,12.3,1.2,16.8c3.3,2.4,7,3.2,10.9,1.4c3.8-1.8,6.5-4.4,6.8-8.9
	c0.3-3.7-0.4-7.1-2.1-10.4c-1.5-2.8-2.8-5.7-3.8-8.7C22,24,25.8,12.3,37,5.4C48.6-1.8,60.7-1.7,72.4,5c9.3,5.3,14,13.6,13.5,24.5
	c-0.3,6.7-3.1,12.6-7,18.1c-0.8,1.2-1.4,2.4-1.7,3.8c-2.1,8.7,4.4,16.1,12.9,14.5c4.5-0.8,7.4-3.6,8.9-7.9c1.4-4.1,0.2-7.7-2.9-10.7
	c-0.8-0.8-1.5-1.7-2-2.7c-0.8-1.9-0.3-3.3,1.5-4.2c1.5-0.7,2.9-0.7,4.4,0.2c4.1,2.4,6.5,6.1,8.4,10.2c3,8.3-1.5,15.3-2.6,17.1
	c-5.2,8.6-15.1,11.4-23.7,10.5c-0.8-0.1-1.6-0.2-2.7,0c0.9,1.1,1.6,2.1,2.4,2.9c3.7,3.8,7.5,7.4,13.1,7.7c1.7,0.1,3.4-0.2,5-0.1
	c2.9,0.1,4.2,2.7,2.8,5.2c-1.1,2-2.8,3.2-4.9,3.6c-4,0.9-8.1,0.9-12-0.6c-9.5-3.6-17.3-9.6-23.6-17.5c-1.8-2.3-4-3.9-7-4.4
	c-4.2-0.6-6.6,2.1-9,4.9C38.6,89,29.8,96.1,17.9,97.9c-4.2,0.7-8.5,0.1-11.4-3.8c-0.9-1.2-1.2-2.5-0.4-3.9c0.8-1.3,2-1.8,3.5-1.9
	c1.7-0.1,3.3,0.7,5,0.4c6.7-1.2,11-5.7,15.3-11.1c-4,0.7-7.5,0.7-11,0.1c-7.6-1.4-13.4-5.2-16.9-12.2C1.2,63.7-1,58.8,0.6,51.2z
	 M45.6,46.7c3.1,0,5.6-2.4,5.7-5.4c0-3-2.5-5.6-5.5-5.6c-3,0-5.5,2.5-5.5,5.5C40.3,44.2,42.7,46.7,45.6,46.7z M64.6,38.7
	c-2,0-4.4,2.5-4.4,4.5c0,2.2,2.2,4.4,4.5,4.3c2.3,0,4.4-2.2,4.3-4.4C68.9,40.9,66.7,38.7,64.6,38.7z"/>
<linearGradient id="SVGID_1_" gradientUnits="userSpaceOnUse" x1="12.6962" y1="40.4891" x2="6.1501" y2="49.6976">
	<stop  offset="0" style="stop-color:#204656"/>
	<stop  offset="1" style="stop-color:#3CB8B7"/>
</linearGradient>
<path style="fill-rule:evenodd;clip-rule:evenodd;fill:url(#SVGID_1_);" d="M1.3,49.3c0,0,2.1-6.1,8.5-9.4c0,0,3.5-1.4,5.4,2
	c0,0,0.8,1.3-1.2,3.9c0,0-4,3.6-4.4,7.2"/>
<linearGradient id="SVGID_2_" gradientUnits="userSpaceOnUse" x1="95.7578" y1="40.8474" x2="101.7137" y2="47.9775">
	<stop  offset="0" style="stop-color:#204656"/>
	<stop  offset="1" style="stop-color:#3CB8B7"/>
</linearGradient>
<path style="fill-rule:evenodd;clip-rule:evenodd;fill:url(#SVGID_2_);" d="M99.2,51.9c0,0-0.4-2.2-3.6-5.2c0,0-2.3-2.5-1.7-4.5
	c0,0,0.8-2.5,4.4-2.3c0,0,3.8,0.4,8.2,7.1"/>
<linearGradient id="SVGID_3_" gradientUnits="userSpaceOnUse" x1="9.6874" y1="93.73" x2="19.7598" y2="91.6587">
	<stop  offset="0" style="stop-color:#204656"/>
	<stop  offset="1" style="stop-color:#3CB8B7"/>
</linearGradient>
<path style="fill-rule:evenodd;clip-rule:evenodd;fill:url(#SVGID_3_);" d="M25,96.1c0,0-14.7,6.4-19.1-3.2c0,0-1-3.6,3.1-4.5
	c0,0,0.7-0.4,5.1,0.5c0,0,4.5-0.5,9.2-4"/>
<linearGradient id="SVGID_4_" gradientUnits="userSpaceOnUse" x1="101.169" y1="94.8036" x2="87.2978" y2="91.9176">
	<stop  offset="1.755100e-03" style="stop-color:#DC2924"/>
	<stop  offset="0.1817" style="stop-color:#CA6143"/>
	<stop  offset="0.3997" style="stop-color:#AF8C6B"/>
	<stop  offset="0.5986" style="stop-color:#8FA48C"/>
	<stop  offset="0.7712" style="stop-color:#6CB0A4"/>
	<stop  offset="0.9108" style="stop-color:#4DB6B2"/>
	<stop  offset="1" style="stop-color:#3CB8B7"/>
</linearGradient>
<path style="fill-rule:evenodd;clip-rule:evenodd;fill:url(#SVGID_4_);" d="M89.4,87.5c0,0,2.6,1.2,4.7,1.4c0,0,1.7,0.3,4.9-0.1
	c0,0,3.6-0.3,4.3,2.3c0,0,1.1,4-4.4,6.2c0,0-6.7,2.5-13.5-0.4c-6.7-2.9-7.7-4-8.4-4.2"/>
</svg>
