<?xml version="1.0" encoding="utf-8"?>
<!-- Generator: Adobe Illustrator 21.0.0, SVG Export Plug-In . SVG Version: 6.00 Build 0)  -->
<!DOCTYPE svg PUBLIC "-//W3C//DTD SVG 1.1//EN" "http://www.w3.org/Graphics/SVG/1.1/DTD/svg11.dtd">
<svg version="1.1" id="Calque_1" xmlns="http://www.w3.org/2000/svg" xmlns:xlink="http://www.w3.org/1999/xlink" x="0px" y="0px"
	 viewBox="0 0 100 100" style="enable-background:new 0 0 100 100;" xml:space="preserve">
<g>
	<path d="M72,46.5c-2.6,0-4.7,2.1-4.7,4.7c0,2.6,2.1,4.7,4.7,4.7c2.6,0,4.7-2.1,4.7-4.7C76.7,48.6,74.6,46.5,72,46.5z"/>
</g>
<path d="M49.9,95.9l-2.2-2c-0.2-0.2-21.5-19.8-35.5-33.1c-0.2-0.2-0.5-0.5-0.7-0.7c-0.1-0.1-0.2-0.2-0.3-0.3l-0.2-0.2l-3.9-4.7
	C0.8,45.8-1.5,34.5,1,24.6c2.1-7.9,7-14,13.9-17.3c15.9-7.5,29,0,35,5.4c2.1-1.9,5.3-4.2,9.3-6C67.6,3.1,76.5,3.3,85,7.3h0
	c6.9,3.3,11.8,9.4,13.9,17.2c2.6,9.8,0.4,21.1-6,30.2l-0.2,0.2l-3.9,4.7c-0.1,0.1-0.2,0.2-0.3,0.4c-0.3,0.3-0.5,0.6-0.8,0.8
	C74,73.9,52.3,93.7,52.1,93.9L49.9,95.9z M16,55.4c0.1,0.1,0.2,0.3,0.4,0.4c0.1,0.1,0.2,0.2,0.3,0.4c11.3,10.8,27.4,25.7,33.2,31
	c5.9-5.4,22.3-20.4,33.4-31c0.2-0.2,0.3-0.3,0.5-0.5c0.1-0.1,0.3-0.3,0.4-0.4l3.6-4.3c5.2-7.5,7.1-16.8,5-24.8
	c-1.6-6-5.3-10.6-10.4-13h0c-17.3-8.2-32.4,9.6-32.4,9.6S35.2,4.9,17.7,13.1c-5.2,2.4-8.9,7.1-10.4,13.1c-2.1,8.1-0.2,17.3,5.1,24.9
	L16,55.4z"/>
<g>
	<g>
		<path d="M11.5,54.1h11.7c1,0,2-0.5,2.6-1.4l0.9-1.4L29.3,64c0.3,1.4,1.5,2.2,3,2.2c0,0,0,0,0,0c1.5,0,2.7-0.9,3-2.3l3.1-16.8
			L41.2,63c0.2,1.3,1.3,2.3,2.7,2.5c1.4,0.2,2.7-0.7,3.1-1.9l3.6-9.4h18.7c1.7,0,3-1.3,3-3c0-1.7-1.4-3-3-3H48.6
			c-1.3,0-2.4,0.8-2.8,2l-0.4,1.1l-3.8-21.7c-0.3-1.4-1.5-2.3-3-2.3c0,0,0,0,0,0c-1.5,0-2.7,0.9-3,2.3l-3.4,18.2l-1-4.8
			c-0.2-1.2-1.2-2.1-2.4-2.3c-1.2-0.2-2.5,0.3-3.1,1.3l-4,6.2h-10c-1.7,0-3,1.3-3,3C8.4,52.8,9.8,54.1,11.5,54.1z"/>
	</g>
</g>
</svg>
