<?xml version="1.0" encoding="utf-8"?>
<!-- Generator: Adobe Illustrator 21.0.0, SVG Export Plug-In . SVG Version: 6.00 Build 0)  -->
<!DOCTYPE svg PUBLIC "-//W3C//DTD SVG 1.1//EN" "http://www.w3.org/Graphics/SVG/1.1/DTD/svg11.dtd">
<svg version="1.1" id="Calque_1" xmlns="http://www.w3.org/2000/svg" xmlns:xlink="http://www.w3.org/1999/xlink" x="0px" y="0px"
	 viewBox="0 0 100 100" style="enable-background:new 0 0 100 100;" xml:space="preserve">
<g>
	<g>
		<path style="fill:#010101;" d="M0,7.7v67.4v4.9h100v-4.9V7.7H0z M6.6,14.3h86.9v54.3H6.6V14.3z M10.1,76.8c-1.1,0-2-0.7-2.3-1.6
			c-0.1-0.3-0.2-0.5-0.2-0.8c0-0.3,0.1-0.6,0.2-0.8c0.3-1,1.2-1.6,2.3-1.6s2,0.7,2.3,1.6c0.1,0.3,0.2,0.5,0.2,0.8
			c0,0.3-0.1,0.6-0.2,0.8C12.1,76.1,11.2,76.8,10.1,76.8z"/>
		<rect x="23" y="87.4" style="fill:#010101;" width="56.3" height="6"/>
		<rect x="33.6" y="81.6" style="fill:#010101;" width="35" height="4.1"/>
	</g>
</g>
<g>
	<path d="M37.4,41l10.3-4.5c0.2-0.1,0.4-0.3,0.5-0.5c0.1-0.2,0-0.5-0.1-0.7c-2.2-3.5-6-5.8-10.4-5.8c-6.8,0-12.3,5.5-12.3,12.3
		c0,6.8,5.5,12.3,12.3,12.3c4.4,0,8.3-2.3,10.4-5.8c0.1-0.2,0.2-0.5,0.1-0.7c-0.1-0.2-0.2-0.4-0.5-0.5l-10.3-4.5
		c-0.3-0.1-0.5-0.4-0.5-0.8C36.8,41.4,37,41.1,37.4,41z"/>
	<path d="M53.9,39.2c-1.4,0-2.5,1.1-2.5,2.5c0,1.4,1.1,2.5,2.5,2.5c1.4,0,2.5-1.1,2.5-2.5C56.4,40.3,55.3,39.2,53.9,39.2z"/>
	<path d="M63.1,39.2c-1.4,0-2.5,1.1-2.5,2.5c0,1.4,1.1,2.5,2.5,2.5c1.4,0,2.5-1.1,2.5-2.5C65.7,40.3,64.5,39.2,63.1,39.2z"/>
	<path d="M72.4,39.2c-1.4,0-2.5,1.1-2.5,2.5c0,1.4,1.1,2.5,2.5,2.5c1.4,0,2.5-1.1,2.5-2.5C74.9,40.3,73.8,39.2,72.4,39.2z"/>
</g>
</svg>
