<?xml version="1.0" encoding="utf-8"?>
<!-- Generator: Adobe Illustrator 21.0.0, SVG Export Plug-In . SVG Version: 6.00 Build 0)  -->
<!DOCTYPE svg PUBLIC "-//W3C//DTD SVG 1.1//EN" "http://www.w3.org/Graphics/SVG/1.1/DTD/svg11.dtd">
<svg version="1.1" id="Calque_1" xmlns="http://www.w3.org/2000/svg" xmlns:xlink="http://www.w3.org/1999/xlink" x="0px" y="0px"
	 viewBox="0 0 100 100" style="enable-background:new 0 0 100 100;" xml:space="preserve">
<g>
	<path d="M39.8,22.2c-1.6,0-2.9,1.3-2.9,2.9c0,1.6,1.3,2.9,2.9,2.9c1.6,0,2.9-1.3,2.9-2.9C42.6,23.5,41.3,22.2,39.8,22.2z"/>
	<path d="M50.1,22.2c-1.6,0-2.9,1.3-2.9,2.9c0,1.6,1.3,2.9,2.9,2.9c1.6,0,2.9-1.3,2.9-2.9C53,23.5,51.7,22.2,50.1,22.2z"/>
	<path d="M60.5,22.2c-1.6,0-2.9,1.3-2.9,2.9c0,1.6,1.3,2.9,2.9,2.9c1.6,0,2.9-1.3,2.9-2.9C63.3,23.5,62.1,22.2,60.5,22.2z"/>
</g>
<rect x="35.1" y="33.8" width="30" height="5.4"/>
<rect x="35.1" y="43.8" width="30" height="5.4"/>
<path d="M81.2,22.9V12.4v-1.4V7.8h-3.1h-0.8H60.7l-5.4-3.9L50.1,0l-7.6,5.7l-2.9,2.1H25.1v0H19v3c0,0.1,0,0.1,0,0.2v11.8l-17.3,14
	v55.3v4.8v3.1h3.1h3h86.4h1.1h3.1v-3.6v-0.7v-59L81.2,22.9z M81.2,30.4l8.8,6.4l-8.8,6.4V30.4z M50.1,6.7l1.5,1.1h-3L50.1,6.7z
	 M25.1,14.1h49.9v33.7L50,66L25.1,47.8V14.1z M55.9,69.2L55.9,69.2L55.9,69.2L55.9,69.2z M19,30.2v13.2l-9.1-6.6L19,30.2z M7.7,42.6
	L39,65.4L7.7,90.6V42.6z M13.4,93.9l30.7-24.7l5.9,4.3l5.9-4.3l30.9,24.7H13.4z M92.3,90.5L61,65.4l31.3-22.9V90.5z"/>
</svg>
