<?xml version="1.0" encoding="utf-8"?>
<!-- Generator: Adobe Illustrator 21.1.0, SVG Export Plug-In . SVG Version: 6.00 Build 0)  -->
<!DOCTYPE svg PUBLIC "-//W3C//DTD SVG 1.1//EN" "http://www.w3.org/Graphics/SVG/1.1/DTD/svg11.dtd">
<svg version="1.1" id="logo-404" xmlns="http://www.w3.org/2000/svg" xmlns:xlink="http://www.w3.org/1999/xlink" x="0px" y="0px"
	 viewBox="0 0 109.5 98.2" style="enable-background:new 0 0 109.5 98.2;" xml:space="preserve">
<style type="text/css">
	.st0{fill:#FFFFFF;}
	.st1{display:none;}
</style>
<path d="M0.6,51.2c1.5-4.8,4.4-8.6,8.8-11.1c1.6-0.9,3.9-0.5,5.2,0.9c1.4,1.6,0.6,3-0.3,4.4c-0.3,0.5-0.8,1-1.3,1.4
	c-5.2,5.3-4.8,12.3,1.2,16.8c3.3,2.4,7,3.2,10.9,1.4c3.8-1.8,6.5-4.4,6.8-8.9c0.3-3.7-0.4-7.1-2.1-10.4C28.3,42.9,27,40,26,37
	c-4-13-0.2-24.7,11-31.6C48.6-1.8,60.7-1.7,72.4,5c9.3,5.3,14,13.6,13.5,24.5c-0.3,6.7-3.1,12.6-7,18.1c-0.8,1.2-1.4,2.4-1.7,3.8
	c-2.1,8.7,4.4,16.1,12.9,14.5c4.5-0.8,7.4-3.6,8.9-7.9c1.4-4.1,0.2-7.7-2.9-10.7c-0.8-0.8-1.5-1.7-2-2.7c-0.8-1.9-0.3-3.3,1.5-4.2
	c1.5-0.7,2.9-0.7,4.4,0.2c4.1,2.4,6.5,6.1,8.4,10.2c3,8.3-1.5,15.3-2.6,17.1c-5.2,8.6-15.1,11.4-23.7,10.5c-0.8-0.1-1.6-0.2-2.7,0
	c0.9,1.1,1.6,2.1,2.4,2.9c3.7,3.8,7.5,7.4,13.1,7.7c1.7,0.1,3.4-0.2,5-0.1c2.9,0.1,4.2,2.7,2.8,5.2c-1.1,2-2.8,3.2-4.9,3.6
	c-4,0.9-8.1,0.9-12-0.6c-9.5-3.6-17.3-9.6-23.6-17.5c-1.8-2.3-4-3.9-7-4.4c-4.2-0.6-6.6,2.1-9,4.9c-7.6,8.9-16.4,16-28.3,17.8
	c-4.2,0.7-8.5,0.1-11.4-3.8c-0.9-1.2-1.2-2.5-0.4-3.9c0.8-1.3,2-1.8,3.5-1.9c1.7-0.1,3.3,0.7,5,0.4c6.7-1.2,11-5.7,15.3-11.1
	c-4,0.7-7.5,0.7-11,0.1C11.3,76.3,5.5,72.5,2,65.5C1.2,63.7-1,58.8,0.6,51.2z"/>
<path class="st0" d="M45.8,35.7c-3,0-5.5,2.5-5.5,5.5s2.4,5.5,5.3,5.5c3.1,0,5.6-2.4,5.7-5.4C51.3,38.3,48.8,35.7,45.8,35.7z"/>
<path class="st0" d="M64.6,38.7c-2,0-4.4,2.5-4.4,4.5c0,2.2,2.2,4.4,4.5,4.3c2.3,0,4.4-2.2,4.3-4.4S66.7,38.7,64.6,38.7z"/>
<path class="st1" d="M45.8,35.7c-3,0-5.5,2.5-5.5,5.5s2.4,5.5,5.3,5.5c3.1,0,5.6-2.4,5.7-5.4C51.3,38.3,48.8,35.7,45.8,35.7z"/>
<path class="st1" d="M64.6,38.7c-2,0-4.4,2.5-4.4,4.5c0,2.2,2.2,4.4,4.5,4.3c2.3,0,4.4-2.2,4.3-4.4S66.7,38.7,64.6,38.7z"/>
<path class="st0" d="M45.4,54.6c0.2,0.2,0.3,0.4,0.5,0.6c0.3,0.4,0.6,0.8,0.8,1.2c0.1,0.3,0.3,0.5,0.3,0.8c0.1,0.4,0,0.9-0.3,1.2
	c-0.2,0.3-0.5,0.4-0.9,0.5c-0.5,0.1-0.9,0-1.3-0.3c-0.3-0.2-0.4-0.5-0.5-0.8c-0.1-0.4,0-0.7,0.1-1c0.2-0.4,0.4-0.7,0.6-1.1
	C44.8,55.3,45,55,45.4,54.6C45.3,54.6,45.3,54.6,45.4,54.6z"/>
<path class="st0" d="M46.4,49.1c0.1,0.1,0.2,0.3,0.3,0.4c0.2,0.3,0.4,0.5,0.5,0.8c0.1,0.2,0.2,0.4,0.2,0.6c0,0.3,0,0.6-0.2,0.9
	c-0.2,0.2-0.4,0.3-0.6,0.3c-0.3,0.1-0.7,0-0.9-0.2c-0.2-0.2-0.3-0.4-0.3-0.6c0-0.3,0-0.5,0.1-0.7c0.1-0.3,0.3-0.5,0.4-0.8
	C46,49.6,46.2,49.4,46.4,49.1C46.4,49.1,46.4,49.1,46.4,49.1z"/>
<path class="st0" d="M64.6,49.1c0.1,0.1,0.2,0.3,0.3,0.4c0.2,0.3,0.4,0.5,0.5,0.8c0.1,0.2,0.2,0.4,0.2,0.6c0,0.3,0,0.6-0.2,0.9
	c-0.2,0.2-0.4,0.3-0.6,0.3c-0.3,0.1-0.7,0-0.9-0.2c-0.2-0.2-0.3-0.4-0.3-0.6c0-0.3,0-0.5,0.1-0.7c0.1-0.3,0.3-0.5,0.4-0.8
	C64.2,49.6,64.4,49.4,64.6,49.1C64.6,49.1,64.6,49.1,64.6,49.1z"/>
</svg>
