<?xml version="1.0" standalone="no"?>
<!DOCTYPE svg PUBLIC "-//W3C//DTD SVG 20010904//EN"
 "http://www.w3.org/TR/2001/REC-SVG-20010904/DTD/svg10.dtd">
<svg version="1.0" xmlns="http://www.w3.org/2000/svg"
 width="16.000000pt" height="16.000000pt" viewBox="0 0 16.000000 16.000000"
 preserveAspectRatio="xMidYMid meet">
<metadata>
Created by potrace 1.11, written by Peter Selinger 2001-2013
</metadata>
<g transform="translate(0.000000,16.000000) scale(0.006154,-0.006154)"
fill="#000000" stroke="none">
<path d="M1135 2454 c-38 -8 -121 -40 -184 -70 -98 -48 -124 -66 -196 -137
-134 -134 -181 -257 -172 -452 6 -134 22 -195 91 -344 70 -150 78 -179 78
-265 0 -91 -22 -145 -79 -196 -45 -40 -134 -80 -177 -80 -53 0 -125 31 -176
76 -69 63 -94 113 -94 189 0 70 20 116 88 195 54 63 60 103 23 138 -73 69
-224 -25 -301 -187 -29 -62 -31 -73 -30 -181 0 -135 13 -180 81 -283 103 -156
265 -231 495 -230 l117 0 -51 -58 c-82 -94 -185 -165 -268 -185 -19 -4 -71 -7
-115 -5 -69 2 -83 0 -102 -19 -58 -53 -24 -134 76 -185 114 -57 354 -3 552
126 70 46 133 101 244 214 83 84 161 158 174 165 13 7 45 12 72 12 69 0 137
-41 205 -123 147 -180 360 -333 549 -394 75 -25 95 -27 183 -23 73 4 110 10
138 25 75 38 108 128 63 169 -17 16 -41 20 -133 24 -95 4 -119 9 -168 33 -56
28 -180 134 -218 187 l-20 27 118 0 c191 0 317 45 427 157 122 123 181 284
155 429 -29 158 -189 340 -287 324 -50 -8 -73 -33 -73 -77 0 -29 10 -47 47
-91 91 -107 106 -190 52 -297 -36 -73 -85 -117 -153 -137 -144 -43 -288 24
-331 156 -23 68 -17 183 12 231 11 18 43 70 70 114 68 113 104 224 111 345 8
169 -33 309 -127 427 -75 95 -233 193 -386 242 -93 29 -279 36 -380 14z m0
-838 c45 -19 75 -69 75 -125 0 -37 -6 -49 -39 -82 -65 -65 -154 -55 -201 24
-38 61 -14 144 51 179 41 22 68 23 114 4z m434 -70 c99 -51 70 -196 -38 -196
-91 0 -140 102 -81 166 42 44 75 52 119 30z"/>
</g>
</svg>
