<svg viewBox="0 0 389 64" width="369" version="1.1" xmlns="http://www.w3.org/2000/svg" xmlns:xlink="http://www.w3.org/1999/xlink">
    <defs>
        <polygon id="path-1" points="44.5986597 0.666216867 0.21002955 0.666216867 0.21002955 35.1642217 44.5986597 35.1642217 44.5986597 0.666216867"></polygon>
    </defs>
    <g id="Symbols" stroke="none" stroke-width="1" fill="none" fill-rule="evenodd">
        <g id="header/normal" transform="translate(-132.000000, -31.000000)">
            <g id="header" transform="translate(70.000000, 6.000000)">
                <g id="logo-beneteau" transform="translate(62.000000, 25.000000)">
                    <g transform="translate(-0.761252, 0.000000)">
                        <g id="Group-3" transform="translate(167.475538, 0.104636)">
                            <mask id="mask-2" fill="white">
                                <use xlink:href="#path-1"></use>
                            </mask>
                            <g id="Clip-2"></g>
                        </g>
                        <g id="logo-reduced" transform="translate(167.475538, 0.000000)">
                            <path d="M6.70884168,13.491894 L44.5986597,0.770544578 L44.5986597,16.1567614 L6.69361663,28.8835084 C2.21745225,30.3932916 0.781730137,31.6570988 0.366086301,35.2688578 L0.21002955,35.2603759 L0.21002955,27.5664964 L0.21002955,23.2391711 C0.232105871,16.8939181 1.04740724,15.3995566 6.70884168,13.491894 Z M6.70884168,32.1794313 L44.5986597,19.458853 L44.5986597,21.4451663 L6.69361663,34.1711422 C2.3879728,35.6238651 0.899724266,36.8560578 0.422418982,40.1624675 L0.252659687,40.1532145 C0.45591409,35.2969253 1.6259591,33.8920096 6.70884168,32.1794313 Z M6.70884168,37.4595084 L44.5986597,24.7389301 L44.5986597,26.7252434 L6.69361663,39.4512193 C2.3879728,40.9039422 0.899724266,42.1361349 0.422418982,45.4425446 L0.252659687,45.4332916 C0.45591409,40.5770024 1.6259591,39.1720867 6.70884168,37.4595084 Z M6.70884168,42.7502265 L44.5986597,30.0288771 L44.5986597,45.4158651 L6.69361663,58.1410699 C2.75109022,59.4719614 1.16844638,60.6131663 0.563250685,63.3335518 L0.21002955,63.3142747 L0.21002955,56.8248289 L0.21002955,52.4967325 C0.232105871,46.1530217 1.04740724,44.6571181 6.70884168,42.7502265 Z" id="Combined-Shape" fill="#B0D2F0"></path>
                            <path d="M29.5659031,30.1686747 C32.0338836,30.4586024 34.6579207,32.3755181 34.6579207,35.3573012 C34.6579207,40.1603855 29.1106742,40.8767229 25.8030323,40.8767229 L12.3204902,40.8767229 L12.3204902,23.6784578 L12.2405587,23.6352771 C10.9190245,22.921253 9.80531213,21.8895422 9.58302642,20.5655904 L12.3189677,20.5655904 L25.0615724,20.5632771 C30.1985039,20.5632771 33.1453121,22.4154217 33.1453121,25.645494 C33.1453121,27.7197108 31.8336742,29.275759 29.5476331,29.914988 L28.9127485,30.0923373 L29.5659031,30.1686747 Z M25.943864,37.696 C28.5564824,37.696 30.1155274,36.6426988 30.1155274,34.8776867 C30.1155274,33.0941687 28.594545,32.0717108 25.943864,32.0717108 L16.8529873,32.0717108 L16.8529873,37.6921446 L25.943864,37.696 Z M16.8529873,23.7447711 L16.8529873,28.8886747 L24.4868268,28.8848193 C27.1344628,28.8848193 28.5930225,27.9718554 28.5930225,26.3147952 C28.5930225,24.0107952 26.2498875,23.7447711 24.4868268,23.7447711 L16.8529873,23.7447711 Z" id="Fill-10" fill="#53606B"></path>
                        </g>
                        <path d="M179.796028,23.1386988 L179.796028,23.1595181 L179.796028,23.1386988 Z M310.322885,23.5965687 L310.322885,26.3886651 L303.229535,26.3886651 L303.229535,40.2905446 L299.255797,40.2905446 L299.255797,26.3886651 L292.440304,26.3886651 L292.440304,23.5965687 L310.322885,23.5965687 Z M255.526868,40.6553446 L242.370903,29.4892723 L242.370903,40.2906217 L238.646856,40.2906217 L238.646856,23.2265253 L240.326179,23.2265253 L253.480622,34.3956819 L253.480622,23.5966458 L257.201623,23.5966458 L257.201623,40.6553446 L255.526868,40.6553446 Z M228.586372,26.3887422 L216.397198,26.3887422 L216.397198,30.3490313 L226.469329,30.3490313 L226.469329,33.1426699 L216.397198,33.1426699 L216.397198,37.4969831 L229.333922,37.4969831 L229.333922,40.2906217 L212.500347,40.2906217 L212.500347,23.5966458 L228.586372,23.5966458 L228.586372,26.3887422 Z M284.682685,26.3887422 L272.49351,26.3887422 L272.49351,30.3490313 L282.565641,30.3490313 L282.565641,33.1426699 L272.49351,33.1426699 L272.49351,37.4969831 L285.430234,37.4969831 L285.430234,40.2906217 L268.596659,40.2906217 L268.596659,23.5966458 L284.682685,23.5966458 L284.682685,26.3887422 Z M334.503079,26.3887422 L322.313905,26.3887422 L322.313905,30.3490313 L332.386036,30.3490313 L332.386036,33.1426699 L322.313905,33.1426699 L322.313905,37.4969831 L335.250629,37.4969831 L335.250629,40.2906217 L318.417054,40.2906217 L318.417054,23.5966458 L334.503079,23.5966458 L334.503079,26.3887422 Z M358.527826,40.2904675 L356.937569,37.1845398 L347.040526,37.1845398 L345.434284,40.2904675 L341.449888,40.2904675 L350.843744,23.2232867 L353.409164,23.2232867 L362.832708,40.2904675 L358.527826,40.2904675 Z M142.386104,28.8823518 C142.386104,32.7316048 139.342617,34.4410988 134.30617,34.4410988 L127.926114,34.4410988 L127.926114,40.2905446 L124.058951,40.2905446 L124.058951,23.5965687 L134.071705,23.5965687 C139.13784,23.5965687 142.386104,25.2837012 142.386104,28.8823518 Z M102.933663,40.6553446 C97.5059331,40.6553446 93.1896317,38.072212 93.1896317,32.2189108 L93.1896317,23.5966458 L97.0560329,23.5966458 L97.0560329,32.0893687 C97.0560329,35.5183807 99.0588881,37.806959 102.933663,37.806959 C106.806915,37.806959 108.808248,35.5183807 108.808248,32.0893687 L108.808248,23.5966458 L112.678456,23.5966458 L112.678456,32.2189108 C112.678456,38.072212 108.361393,40.6553446 102.933663,40.6553446 Z M71.8983143,40.6551133 C65.3812321,40.6551133 60.0981401,36.7549687 60.0981401,31.9410892 C60.0981401,27.1272096 65.3812321,23.2270651 71.8983143,23.2270651 C78.4146352,23.2270651 83.6946822,27.1272096 83.6946822,31.9410892 C83.6946822,36.7549687 78.4146352,40.6551133 71.8983143,40.6551133 Z M51.9018112,28.8824289 C51.9018112,31.8272 49.8685059,33.4079229 46.8524237,34.1111518 L51.9018112,40.2906217 L47.260455,40.2906217 L42.6472652,34.4411759 L37.4402984,34.4411759 L37.4402984,40.2906217 L33.573136,40.2906217 L33.573136,23.5966458 L43.5858894,23.5966458 C48.653547,23.5966458 51.9018112,25.2837783 51.9018112,28.8824289 Z M167.234602,26.3887422 L155.046189,26.3887422 L155.046189,30.3490313 L165.117559,30.3490313 L165.117559,33.1426699 L155.046189,33.1426699 L155.046189,37.4969831 L167.982913,37.4969831 L167.982913,40.2906217 L151.148576,40.2906217 L151.148576,23.5966458 L167.234602,23.5966458 L167.234602,26.3887422 Z M379.437071,40.6553446 C374.004773,40.6553446 369.687711,38.072212 369.687711,32.2189108 L369.687711,23.5966458 L373.557918,23.5966458 L373.557918,32.0893687 C373.557918,35.5183807 375.563818,37.806959 379.437071,37.806959 C383.311846,37.806959 385.313178,35.5183807 385.313178,32.0893687 L385.313178,23.5966458 L389.180341,23.5966458 L389.180341,32.2189108 C389.180341,38.072212 384.861756,40.6553446 379.437071,40.6553446 Z M18.6617231,28.3808386 C17.2488386,26.9296578 15.0800303,25.9557783 12.558001,25.9557783 C8.29650978,25.9557783 4.84118493,28.6345253 4.84118493,31.9409349 C4.84118493,35.2496578 8.30031605,37.9284048 12.558001,37.9284048 C15.9615607,37.9284048 18.851275,36.220453 19.879727,33.8501398 L13.8110225,33.8485976 L13.8110225,31.1428627 L23.8717348,31.1428627 L23.8717348,31.9409349 C23.8717348,36.7548145 19.0743219,40.654959 12.558001,40.654959 C6.04472505,40.654959 0.76087182,37.1480675 0.76087182,32.334188 C0.76087182,27.5226217 5.61918493,23.2269108 12.558001,23.2269108 C16.601774,23.2269108 19.7678229,24.4783807 21.9252123,26.5086458 L18.6617231,28.3808386 Z M37.4402984,26.3887422 L37.4402984,31.6475373 L43.5006292,31.6475373 C46.1916566,31.6475373 48.0346487,31.141706 48.0346487,29.0165976 C48.0346487,26.889947 46.1916566,26.3887422 43.5006292,26.3887422 L37.4402984,26.3887422 Z M127.926114,31.6459181 L133.986444,31.6459181 C136.678994,31.6459181 138.518941,31.1416289 138.518941,29.0165205 C138.518941,26.890641 136.678994,26.3886651 133.986444,26.3886651 L127.926114,26.3886651 L127.926114,31.6459181 Z M348.441992,34.4772627 L355.55209,34.4772627 L352.016072,27.5698892 L348.441992,34.4772627 Z M79.6151303,31.9410892 C79.6151303,28.6346795 76.1590442,25.9559325 71.8983143,25.9559325 C67.6337781,25.9559325 64.1814982,28.6346795 64.1814982,31.9410892 C64.1814982,35.249812 67.6337781,37.928559 71.8983143,37.928559 C76.1590442,37.928559 79.6151303,35.249812 79.6151303,31.9410892 Z" id="Combined-Shape" fill="#53606B"></path>
                        <g id="Group-18" transform="translate(176.610568, 20.152829)"></g>
                        <g id="Group-35" transform="translate(0.761252, 22.466082)"></g>
                    </g>
                </g>
            </g>
        </g>
    </g>
</svg>