<svg version="1.1" xmlns="http://www.w3.org/2000/svg" xmlns:xlink="http://www.w3.org/1999/xlink" width="426px" height="426px" viewBox="0 0 426 426">
<path fill='#224958' d="M213.3,0h-0.6C139.1,0,79.3,59.8,79.3,133.4c0,48.2,22,111.8,65.2,189.1c32.1,57.3,64.6,101.2,65,101.6
        c0.9,1.2,2.3,1.9,3.8,1.9c0,0,0.1,0,0.1,0c1.6,0,3-0.8,3.9-2.1c0.3-0.5,32.6-49.3,64.5-109c43-80.6,64.8-141.6,64.8-181.5
        C346.7,59.8,286.8,0,213.3,0z M274.9,136.6c0,34.1-27.8,61.9-61.9,61.9c-34.1,0-61.9-27.8-61.9-61.9s27.8-61.9,61.9-61.9
        C247.1,74.7,274.9,102.5,274.9,136.6z"/>
</svg>
