<svg xmlns="http://www.w3.org/2000/svg" viewBox="0 0 109.5 98.2"><path d="M.6 51.2c1.5-4.8 4.4-8.6 8.8-11.1 1.6-.9 3.9-.5 5.2.9 1.4 1.6.6 3-.3 4.4-.3.5-.8 1-1.3 1.4-5.2 5.3-4.8 12.3 1.2 16.8 3.3 2.4 7 3.2 10.9 1.4 3.8-1.8 6.5-4.4 6.8-8.9.3-3.7-.4-7.1-2.1-10.4C28.3 42.9 27 40 26 37c-4-13-.2-24.7 11-31.6C48.6-1.8 60.7-1.7 72.4 5c9.3 5.3 14 13.6 13.5 24.5-.3 6.7-3.1 12.6-7 18.1-.8 1.2-1.4 2.4-1.7 3.8-2.1 8.7 4.4 16.1 12.9 14.5 4.5-.8 7.4-3.6 8.9-7.9 1.4-4.1.2-7.7-2.9-10.7-.8-.8-1.5-1.7-2-2.7-.8-1.9-.3-3.3 1.5-4.2 1.5-.7 2.9-.7 4.4.2 4.1 2.4 6.5 6.1 8.4 10.2 3 8.3-1.5 15.3-2.6 17.1-5.2 8.6-15.1 11.4-23.7 10.5-.8-.1-1.6-.2-2.7 0 .9 1.1 1.6 2.1 2.4 2.9 3.7 3.8 7.5 7.4 13.1 7.7 1.7.1 3.4-.2 5-.1 2.9.1 4.2 2.7 2.8 5.2-1.1 2-2.8 3.2-4.9 3.6-4 .9-8.1.9-12-.6-9.5-3.6-17.3-9.6-23.6-17.5-1.8-2.3-4-3.9-7-4.4-4.2-.6-6.6 2.1-9 4.9-7.6 8.9-16.4 16-28.3 17.8-4.2.7-8.5.1-11.4-3.8-.9-1.2-1.2-2.5-.4-3.9.8-1.3 2-1.8 3.5-1.9 1.7-.1 3.3.7 5 .4 6.7-1.2 11-5.7 15.3-11.1-4 .7-7.5.7-11 .1C11.3 76.3 5.5 72.5 2 65.5c-.8-1.8-3-6.7-1.4-14.3zm45-4.5c3.1 0 5.6-2.4 5.7-5.4 0-3-2.5-5.6-5.5-5.6s-5.5 2.5-5.5 5.5 2.4 5.5 5.3 5.5zm19-8c-2 0-4.4 2.5-4.4 4.5 0 2.2 2.2 4.4 4.5 4.3 2.3 0 4.4-2.2 4.3-4.4-.1-2.2-2.3-4.4-4.4-4.4z" fill-rule="evenodd" clip-rule="evenodd" fill="#3cb8b7"/><linearGradient id="a" gradientUnits="userSpaceOnUse" x1="12.696" y1="40.489" x2="6.15" y2="49.698"><stop offset="0" stop-color="#204656"/><stop offset="1" stop-color="#3cb8b7"/></linearGradient><path d="M1.3 49.3s2.1-6.1 8.5-9.4c0 0 3.5-1.4 5.4 2 0 0 .8 1.3-1.2 3.9 0 0-4 3.6-4.4 7.2" fill-rule="evenodd" clip-rule="evenodd" fill="url(#a)"/><linearGradient id="b" gradientUnits="userSpaceOnUse" x1="95.758" y1="40.847" x2="101.714" y2="47.977"><stop offset="0" stop-color="#204656"/><stop offset="1" stop-color="#3cb8b7"/></linearGradient><path d="M99.2 51.9s-.4-2.2-3.6-5.2c0 0-2.3-2.5-1.7-4.5 0 0 .8-2.5 4.4-2.3 0 0 3.8.4 8.2 7.1" fill-rule="evenodd" clip-rule="evenodd" fill="url(#b)"/><linearGradient id="c" gradientUnits="userSpaceOnUse" x1="9.687" y1="93.73" x2="19.76" y2="91.659"><stop offset="0" stop-color="#204656"/><stop offset="1" stop-color="#3cb8b7"/></linearGradient><path d="M25 96.1s-14.7 6.4-19.1-3.2c0 0-1-3.6 3.1-4.5 0 0 .7-.4 5.1.5 0 0 4.5-.5 9.2-4" fill-rule="evenodd" clip-rule="evenodd" fill="url(#c)"/><linearGradient id="d" gradientUnits="userSpaceOnUse" x1="101.169" y1="94.804" x2="87.298" y2="91.918"><stop offset=".002" stop-color="#dc2924"/><stop offset=".182" stop-color="#ca6143"/><stop offset=".4" stop-color="#af8c6b"/><stop offset=".599" stop-color="#8fa48c"/><stop offset=".771" stop-color="#6cb0a4"/><stop offset=".911" stop-color="#4db6b2"/><stop offset="1" stop-color="#3cb8b7"/></linearGradient><path d="M89.4 87.5s2.6 1.2 4.7 1.4c0 0 1.7.3 4.9-.1 0 0 3.6-.3 4.3 2.3 0 0 1.1 4-4.4 6.2 0 0-6.7 2.5-13.5-.4-6.7-2.9-7.7-4-8.4-4.2" fill-rule="evenodd" clip-rule="evenodd" fill="url(#d)"/></svg>